<svg width="27" height="27" viewBox="0 0 27 27" fill="none" xmlns="http://www.w3.org/2000/svg">
<path fill-rule="evenodd" clip-rule="evenodd" d="M4.14815 0H22.8519C24.9093 0 26.5926 1.68333 26.5926 3.74074V22.4444C26.5926 24.5019 24.9093 26.1852 22.8519 26.1852H4.14815C2.09074 26.1852 0.40741 24.5019 0.40741 22.4444V3.74074C0.40741 1.68333 2.09074 0 4.14815 0ZM17.8642 13.0925C17.8642 10.686 15.9065 8.72833 13.5 8.72833C11.0935 8.72833 9.1358 10.686 9.1358 13.0925C9.1358 15.4991 11.0935 17.4567 13.5 17.4567C15.9065 17.4567 17.8642 15.4991 17.8642 13.0925ZM4.14815 22.4444V11.2222H5.62075C5.47312 11.8347 5.39738 12.4624 5.39506 13.0925C5.39506 17.5688 9.02377 21.1975 13.5 21.1975C17.9762 21.1975 21.6049 17.5688 21.6049 13.0925C21.6032 12.4624 21.5275 11.8346 21.3792 11.2222H22.8519V22.4444H4.14815ZM17.8642 8.72833H22.8519V3.74068H17.8642V8.72833Z" fill="#37499B"/>
</svg>
