<svg width="33" height="19" viewBox="0 0 33 19" fill="none" xmlns="http://www.w3.org/2000/svg">
<path d="M20.5918 14.3529C21.7838 13.9676 23.3101 16.8966 24.9348 18.0176C26.1543 18.8668 27.0882 18.6835 27.0882 18.6835L31.4188 18.6211C31.4188 18.6211 33.6819 18.4815 32.612 16.6834C32.5235 16.5338 31.9848 15.3505 29.3888 12.9152C26.6742 10.3678 27.0421 10.7805 30.3102 6.37643C32.3016 3.69182 33.0983 2.05213 32.849 1.35386C32.6096 0.681775 31.1469 0.856343 31.1469 0.856343L26.2677 0.890009C25.7927 0.891256 25.3899 1.03839 25.2066 1.53217C25.2029 1.53716 24.4323 3.60953 23.4048 5.37142C21.234 9.09844 20.3674 9.2967 20.0082 9.06353C19.184 8.52361 19.3923 6.89764 19.3923 5.74175C19.3923 2.12944 19.9309 0.62317 18.3374 0.234133C17.8049 0.104454 17.4159 0.0196636 16.058 0.00719449C14.3223 -0.0189907 12.8485 0.0071945 12.013 0.417429C11.4582 0.695491 11.033 1.30523 11.2911 1.34015C11.6153 1.38379 12.3422 1.53965 12.7313 2.07084C13.2313 2.75913 13.2163 4.30156 13.2163 4.30156C13.2163 4.30156 13.5019 8.55479 12.543 9.08223C11.8846 9.44384 10.9843 8.70566 9.04787 5.32154C8.05907 3.59082 7.31217 1.67806 7.31217 1.67806C7.31217 1.67806 7.16753 1.32269 6.90568 1.12817C6.59395 0.897491 6.15753 0.823923 6.15753 0.823923L1.52649 0.853849C1.52649 0.853849 0.830714 0.873799 0.575097 1.18054C0.348158 1.45237 0.556393 2.01348 0.556393 2.01348C0.556393 2.01348 4.18366 10.5935 8.291 14.9153C12.0567 18.883 16.3361 18.6199 16.3361 18.6199H18.275C18.275 18.6199 18.8598 18.5525 19.1591 18.2308C19.4384 17.9316 19.4259 17.3692 19.4259 17.3692C19.4259 17.3692 19.3873 14.7395 20.5918 14.3529Z" fill="#37499B"/>
</svg>
